<svg xmlns="http://www.w3.org/2000/svg" xmlns:xlink="http://www.w3.org/1999/xlink" width="10px" height="10px" viewBox="0 0 10 10" version="1.1">
    <defs>
        <path d="M5.2843055,0.0885911588 L5.35355339,0.146446609 L9.85355339,4.64644661 C10.0271197,4.82001296 10.0464049,5.08943736 9.91140884,5.2843055 L9.85355339,5.35355339 L5.35355339,9.85355339 C5.15829124,10.0488155 4.84170876,10.0488155 4.64644661,9.85355339 C4.47288026,9.67998704 4.45359511,9.41056264 4.58859116,9.2156945 L4.64644661,9.14644661 L8.793,5 L4.64644661,0.853553391 C4.47288026,0.679987039 4.45359511,0.410562638 4.58859116,0.215694497 L4.64644661,0.146446609 C4.82001296,-0.0271197425 5.08943736,-0.0464048927 5.2843055,0.0885911588 Z M5,3 C6.10474237,3 7,3.89525763 7,5 C7,6.10474237 6.10474237,7 5,7 C4.06830262,7 3.28560314,6.36324003 3.06326139,5.50107994 L0.5,5.5 C0.223857625,5.5 1.99464592e-13,5.27614237 1.99549136e-13,5 C1.99624286e-13,4.75454011 0.176875161,4.55039163 0.410124368,4.50805567 L0.5,4.5 L3.063003,4.49992306 C3.28499618,3.63725387 4.06794136,3 5,3 Z M5,4 C4.44754237,4 4,4.44754237 4,5 C4,5.55245763 4.44754237,6 5,6 C5.55245763,6 6,5.55245763 6,5 C6,4.44754237 5.55245763,4 5,4 Z" id="path-1"/>
        <filter x="-250.0%" y="-240.0%" width="610.0%" height="610.0%" filterUnits="objectBoundingBox" id="filter-2">
            <feOffset dx="0" dy="2" in="SourceAlpha" result="shadowOffsetOuter1"/>
            <feGaussianBlur stdDeviation="8" in="shadowOffsetOuter1" result="shadowBlurOuter1"/>
            <feColorMatrix values="0 0 0 0 0.0470588235   0 0 0 0 0.0392156863   0 0 0 0 0.11372549  0 0 0 1 0" type="matrix" in="shadowBlurOuter1" result="shadowMatrixOuter1"/>
            <feOffset dx="1" dy="1" in="SourceAlpha" result="shadowOffsetOuter2"/>
            <feGaussianBlur stdDeviation="8" in="shadowOffsetOuter2" result="shadowBlurOuter2"/>
            <feColorMatrix values="0 0 0 0 0.398342226   0 0 0 0 0.847843431   0 0 0 0 1  0 0 0 1 0" type="matrix" in="shadowBlurOuter2" result="shadowMatrixOuter2"/>
            <feMerge>
                <feMergeNode in="shadowMatrixOuter1"/>
                <feMergeNode in="shadowMatrixOuter2"/>
            </feMerge>
        </filter>
    </defs>
    <g id="arrow" stroke="none" stroke-width="1" fill="none" fill-rule="evenodd">
        <g>
            <use fill="none" fill-opacity="1" filter="url(#filter-2)" xlink:href="#path-1"/>
            <use fill="#FFF" fill-rule="evenodd" xlink:href="#path-1"/>
        </g>
    </g>
</svg>