<?xml version="1.0" encoding="UTF-8"?>
<svg width="20px" height="10px" viewBox="0 0 20 10" version="1.1" xmlns="http://www.w3.org/2000/svg" xmlns:xlink="http://www.w3.org/1999/xlink">
    <title>Delegate</title>
    <defs>
        <filter id="filter-1">
            <feColorMatrix in="SourceGraphic" type="matrix" values="0 0 0 0 1.000000 0 0 0 0 1.000000 0 0 0 0 1.000000 0 0 0 1.000000 0"></feColorMatrix>
        </filter>
    </defs>
    <g id="Assets" stroke="none" stroke-width="1" fill="none" fill-rule="evenodd">
        <g id="Delegate-Copy" transform="translate(-1.000000, -7.000000)">
            <g id="Group" transform="translate(0.000000, 6.000000)" opacity="0.64" stroke="#FFFFFF" stroke-linejoin="round">
                <g id="Icons-/-Arrow-/-Direction-Right">
                    <line x1="1.5" y1="6" x2="10.5" y2="6" id="Path-3-Copy"></line>
                    <polyline id="Path-3" points="6 1.5 10.5 6 6 10.5"></polyline>
                </g>
            </g>
            <g id="[i]-Accoutn-type-Copy" transform="translate(7.500000, 3.000000)" filter="url(#filter-1)">
                <g transform="translate(4.500000, 4.500000)">
                    <path d="M4.5,0 C3.2571,0 2.25,1.00755 2.25,2.25 C2.25,3.4929 3.2571,4.5 4.5,4.5 C5.7429,4.5 6.75,3.4929 6.75,2.25 C6.75,1.00755 5.7429,0 4.5,0 M9,7.8768 L9,8.54865 C9,8.79795 8.79795,9 8.54865,9 L0.45135,9 C0.20205,9 0,8.79795 0,8.54865 L0,7.8768 C0,6.633 1.008,5.625 2.2518,5.625 L6.7482,5.625 C7.992,5.625 9,6.633 9,7.8768" id="Fill-3" fill="#FFFFFF"></path>
                </g>
            </g>
        </g>
    </g>
</svg>