<?xml version="1.0" encoding="UTF-8"?>
<svg width="12px" height="12px" viewBox="0 0 12 12" version="1.1" xmlns="http://www.w3.org/2000/svg" xmlns:xlink="http://www.w3.org/1999/xlink">
    <title>Search</title>
    <g id="Assets" stroke="none" stroke-width="1" fill="none" fill-rule="evenodd">
        <g id="Icons-/-Search" transform="translate(0.000000, 0.000000)" fill="#FFFFFF">
            <path d="M5.25,0.75 C7.73528137,0.75 9.75,2.76471863 9.75,5.25 C9.75,6.34709772 9.35739675,7.35249803 8.70502152,8.13336966 L11.1317162,10.5605915 C11.2894279,10.7183032 11.2894279,10.9740045 11.1317162,11.1317162 C10.9740045,11.2894279 10.7183032,11.2894279 10.5605915,11.1317162 L9.27151457,9.84263928 C9.17120688,9.74233158 9.08520688,9.65633158 9.01351457,9.58463928 L8.13336966,8.70502152 C7.35249803,9.35739675 6.34709772,9.75 5.25,9.75 C2.76471863,9.75 0.75,7.73528137 0.75,5.25 C0.75,2.76471863 2.76471863,0.75 5.25,0.75 Z M5.25,1.5 C3.17893219,1.5 1.5,3.17893219 1.5,5.25 C1.5,7.32106781 3.17893219,9 5.25,9 C7.32106781,9 9,7.32106781 9,5.25 C9,3.17893219 7.32106781,1.5 5.25,1.5 Z" id="Combined-Shape"></path>
        </g>
    </g>
</svg>